<mxfile host="app.diagrams.net" modified="2021-01-13T09:26:52.452Z" agent="5.0 (Macintosh; Intel Mac OS X 10_13_6) AppleWebKit/537.36 (KHTML, like Gecko) Chrome/87.0.4280.141 Safari/537.36" etag="WS0boSbYggtCgEy6ZuQq" version="14.1.9" type="github">
  <diagram id="Fe3EmKQ8GmxEpJcj-DCG" name="Page-1">
    <mxGraphModel dx="946" dy="555" grid="1" gridSize="10" guides="1" tooltips="1" connect="1" arrows="1" fold="1" page="1" pageScale="1" pageWidth="850" pageHeight="1100" math="0" shadow="0">
      <root>
        <mxCell id="0" />
        <mxCell id="1" parent="0" />
        <mxCell id="LTWrLNp2Oi7xFCTITC-D-15" value="" style="edgeStyle=orthogonalEdgeStyle;rounded=0;orthogonalLoop=1;jettySize=auto;html=1;" edge="1" parent="1" source="LTWrLNp2Oi7xFCTITC-D-2" target="LTWrLNp2Oi7xFCTITC-D-5">
          <mxGeometry relative="1" as="geometry" />
        </mxCell>
        <mxCell id="LTWrLNp2Oi7xFCTITC-D-2" value="&lt;font style=&quot;font-size: 24px&quot;&gt;Input.txt&lt;/font&gt;" style="ellipse;whiteSpace=wrap;html=1;strokeColor=#000000;strokeWidth=1;" vertex="1" parent="1">
          <mxGeometry x="210" y="80" width="120" height="80" as="geometry" />
        </mxCell>
        <mxCell id="LTWrLNp2Oi7xFCTITC-D-16" value="" style="edgeStyle=orthogonalEdgeStyle;rounded=0;orthogonalLoop=1;jettySize=auto;html=1;" edge="1" parent="1" source="LTWrLNp2Oi7xFCTITC-D-3" target="LTWrLNp2Oi7xFCTITC-D-12">
          <mxGeometry relative="1" as="geometry" />
        </mxCell>
        <mxCell id="LTWrLNp2Oi7xFCTITC-D-3" value="&lt;font style=&quot;font-size: 24px&quot;&gt;API.py&lt;/font&gt;" style="rounded=0;whiteSpace=wrap;html=1;strokeColor=#000000;strokeWidth=1;" vertex="1" parent="1">
          <mxGeometry x="500" y="240" width="120" height="60" as="geometry" />
        </mxCell>
        <mxCell id="LTWrLNp2Oi7xFCTITC-D-10" style="edgeStyle=orthogonalEdgeStyle;rounded=0;orthogonalLoop=1;jettySize=auto;html=1;exitX=1;exitY=0.25;exitDx=0;exitDy=0;entryX=0;entryY=0.5;entryDx=0;entryDy=0;" edge="1" parent="1" source="LTWrLNp2Oi7xFCTITC-D-5" target="LTWrLNp2Oi7xFCTITC-D-6">
          <mxGeometry relative="1" as="geometry" />
        </mxCell>
        <mxCell id="LTWrLNp2Oi7xFCTITC-D-11" style="edgeStyle=orthogonalEdgeStyle;rounded=0;orthogonalLoop=1;jettySize=auto;html=1;exitX=1;exitY=0.75;exitDx=0;exitDy=0;" edge="1" parent="1" source="LTWrLNp2Oi7xFCTITC-D-5" target="LTWrLNp2Oi7xFCTITC-D-3">
          <mxGeometry relative="1" as="geometry" />
        </mxCell>
        <mxCell id="LTWrLNp2Oi7xFCTITC-D-5" value="&lt;font style=&quot;font-size: 24px&quot;&gt;Main.py&lt;/font&gt;" style="rounded=0;whiteSpace=wrap;html=1;strokeColor=#000000;strokeWidth=1;" vertex="1" parent="1">
          <mxGeometry x="210" y="190" width="120" height="60" as="geometry" />
        </mxCell>
        <mxCell id="LTWrLNp2Oi7xFCTITC-D-13" style="edgeStyle=orthogonalEdgeStyle;rounded=0;orthogonalLoop=1;jettySize=auto;html=1;exitX=0.5;exitY=1;exitDx=0;exitDy=0;entryX=1;entryY=0.5;entryDx=0;entryDy=0;" edge="1" parent="1" source="LTWrLNp2Oi7xFCTITC-D-6" target="LTWrLNp2Oi7xFCTITC-D-5">
          <mxGeometry relative="1" as="geometry" />
        </mxCell>
        <mxCell id="LTWrLNp2Oi7xFCTITC-D-6" value="&lt;font style=&quot;font-size: 24px&quot;&gt;Authentication.py&lt;/font&gt;" style="rounded=0;whiteSpace=wrap;html=1;strokeColor=#000000;strokeWidth=1;" vertex="1" parent="1">
          <mxGeometry x="445" y="90" width="230" height="60" as="geometry" />
        </mxCell>
        <mxCell id="LTWrLNp2Oi7xFCTITC-D-9" value="" style="edgeStyle=orthogonalEdgeStyle;rounded=0;orthogonalLoop=1;jettySize=auto;html=1;" edge="1" parent="1" source="LTWrLNp2Oi7xFCTITC-D-7" target="LTWrLNp2Oi7xFCTITC-D-5">
          <mxGeometry relative="1" as="geometry" />
        </mxCell>
        <mxCell id="LTWrLNp2Oi7xFCTITC-D-7" value="&lt;font style=&quot;font-size: 24px&quot;&gt;script.py&lt;/font&gt;" style="rounded=0;whiteSpace=wrap;html=1;strokeColor=#000000;strokeWidth=1;" vertex="1" parent="1">
          <mxGeometry x="40" y="190" width="120" height="60" as="geometry" />
        </mxCell>
        <mxCell id="LTWrLNp2Oi7xFCTITC-D-12" value="&lt;font style=&quot;font-size: 24px&quot;&gt;Output&lt;/font&gt;" style="ellipse;whiteSpace=wrap;html=1;strokeColor=#000000;strokeWidth=1;" vertex="1" parent="1">
          <mxGeometry x="675" y="230" width="120" height="80" as="geometry" />
        </mxCell>
      </root>
    </mxGraphModel>
  </diagram>
</mxfile>
